<svg height="7em" xmlns="http://www.w3.org/2000/svg" viewBox="0 0 396.7 585.9"><defs><style>.cls-1{fill:#1f94ba;}.cls-2{fill:#11b5bf;}.cls-3{fill:#1a4893;}.cls-4{fill:#bee2e9;}</style></defs><title>Logo-CMYK</title><polygon class="cls-1" points="283.46 51.76 326.5 217.81 396.7 149.51 283.46 51.76"/><polygon class="cls-2" points="113.24 51.76 70.19 217.81 0 149.51 113.24 51.76"/><polygon class="cls-3" points="327.56 44.83 283.46 51.76 396.7 149.51 327.56 44.83"/><polygon class="cls-4" points="69.14 44.83 113.24 51.76 0 149.51 69.14 44.83"/><polygon class="cls-3" points="198.28 146.91 326.51 217.81 283.46 51.76 198.28 146.91"/><polygon class="cls-4" points="198.28 146.91 70.05 217.81 113.1 51.76 198.28 146.91"/><polygon class="cls-1" points="198.28 0 283.46 51.76 327.56 44.83 198.28 0"/><polygon class="cls-2" points="198.28 0 113.1 51.76 69 44.83 198.28 0"/><polygon class="cls-1" points="113.24 51.76 198.28 146.91 283.46 51.76 113.24 51.76"/><polygon class="cls-4" points="198.28 0 113.24 51.76 283.46 51.76 198.28 0"/><polygon class="cls-4" points="23.03 304.86 70.05 217.81 0 149.51 23.03 304.86"/><polygon class="cls-3" points="373.53 304.86 326.5 217.81 396.56 149.51 373.53 304.86"/><polygon class="cls-1" points="198.28 324.06 326.51 217.81 198.28 146.91 198.28 324.06"/><polygon class="cls-2" points="198.28 324.06 70.05 217.81 198.28 146.91 198.28 324.06"/><polygon class="cls-2" points="114.2 402.32 23.03 304.86 70.05 217.81 114.2 402.32"/><polygon class="cls-1" points="282.36 402.32 373.53 304.86 326.5 217.81 282.36 402.32"/><polygon class="cls-4" points="114.2 402.32 198.28 324.06 70.05 217.81 114.2 402.32"/><polygon class="cls-3" points="282.36 402.32 198.28 324.06 326.5 217.81 282.36 402.32"/><polygon class="cls-2" points="198.28 460.65 114.2 402.32 198.28 324.06 198.28 460.65"/><polygon class="cls-1" points="198.28 460.65 282.36 402.32 198.28 324.06 198.28 460.65"/><polygon class="cls-4" points="198.28 550.6 153.7 524.3 168.66 585.9 198.28 550.6"/><polygon class="cls-4" points="198.28 550.6 242.86 524.3 227.84 585.9 198.28 550.6"/><polygon class="cls-2" points="227.84 585.9 198.28 550.6 168.66 585.9 227.84 585.9"/><polygon class="cls-2" points="198.28 484.88 153.7 524.3 198.28 550.6 198.28 484.88"/><polygon class="cls-1" points="198.28 484.88 242.86 524.3 198.28 550.6 198.28 484.88"/></svg>
