<svg id="logo-bg" xmlns="http://www.w3.org/2000/svg" viewBox="0 0 398.7 587.9">
  <defs>
      <style>
        .cls-1 {
            fill: none;
            stroke: #ccc;
            stroke-linejoin: round;
            stroke-width: 1px;
            opacity: 0.4;
        }
      </style>
  </defs>
  <title>Logo-Black</title>
  <polygon class="cls-1" points="284.46 52.76 327.5 218.81 397.7 150.51 284.46 52.76"/><polygon class="cls-1" points="114.24 52.76 71.19 218.81 1 150.51 114.24 52.76"/><polygon class="cls-1" points="328.56 45.83 284.46 52.76 397.7 150.51 328.56 45.83"/><polygon class="cls-1" points="70.14 45.83 114.24 52.76 1 150.51 70.14 45.83"/><polygon class="cls-1" points="199.28 147.91 327.51 218.81 284.46 52.76 199.28 147.91"/><polygon class="cls-1" points="199.28 147.91 71.05 218.81 114.1 52.76 199.28 147.91"/><polygon class="cls-1" points="199.28 1 284.46 52.76 328.56 45.83 199.28 1"/><polygon class="cls-1" points="199.28 1 114.1 52.76 70 45.83 199.28 1"/><polygon class="cls-1" points="114.24 52.76 199.28 147.91 284.46 52.76 114.24 52.76"/><polygon class="cls-1" points="199.28 1 114.24 52.76 284.46 52.76 199.28 1"/><polygon class="cls-1" points="24.03 305.86 71.05 218.81 1 150.51 24.03 305.86"/><polygon class="cls-1" points="374.53 305.86 327.5 218.81 397.56 150.51 374.53 305.86"/><polygon class="cls-1" points="199.28 325.06 327.51 218.81 199.28 147.91 199.28 325.06"/><polygon class="cls-1" points="199.28 325.06 71.05 218.81 199.28 147.91 199.28 325.06"/><polygon class="cls-1" points="115.2 403.32 24.03 305.86 71.05 218.81 115.2 403.32"/><polygon class="cls-1" points="283.36 403.32 374.53 305.86 327.5 218.81 283.36 403.32"/><polygon class="cls-1" points="115.2 403.32 199.28 325.06 71.05 218.81 115.2 403.32"/><polygon class="cls-1" points="283.36 403.32 199.28 325.06 327.5 218.81 283.36 403.32"/><polygon class="cls-1" points="199.28 461.65 115.2 403.32 199.28 325.06 199.28 461.65"/><polygon class="cls-1" points="199.28 461.65 283.36 403.32 199.28 325.06 199.28 461.65"/><polygon class="cls-1" points="199.28 551.6 154.7 525.3 169.66 586.9 199.28 551.6"/><polygon class="cls-1" points="199.28 551.6 243.86 525.3 228.84 586.9 199.28 551.6"/><polygon class="cls-1" points="228.84 586.9 199.28 551.6 169.66 586.9 228.84 586.9"/><polygon class="cls-1" points="199.28 485.88 154.7 525.3 199.28 551.6 199.28 485.88"/><polygon class="cls-1" points="199.28 485.88 243.86 525.3 199.28 551.6 199.28 485.88"/>
</svg>
